HIERARCHY
ROOT Hips
{
	OFFSET 0.000000 0.000000 0.000000 
	CHANNELS 6 Xposition Yposition Zposition Zrotation Yrotation Xrotation
	JOINT LeftUpLeg
	{
		OFFSET 1.363060 -1.794630 0.839290 
		CHANNELS 3 Zrotation Yrotation Xrotation
		JOINT LeftLeg
		{
			OFFSET 2.448110 -6.726130 0.000000 
			CHANNELS 3 Zrotation Yrotation Xrotation
			JOINT LeftFoot
			{
				OFFSET 2.562200 -7.039590 0.000000 
				CHANNELS 3 Zrotation Yrotation Xrotation
				JOINT LeftToeBase
				{
					OFFSET 0.157640 -0.433110 2.322550 
					CHANNELS 3 Zrotation Yrotation Xrotation
					End Site
					{
						OFFSET 0.000000 0.000000 0.000000 
					}
				}
			}
		}
	}
	JOINT RightUpLeg
	{
		OFFSET -1.305520 -1.794630 0.839290 
		CHANNELS 3 Zrotation Yrotation Xrotation
		JOINT RightLeg
		{
			OFFSET -2.542530 -6.985550 0.000000 
			CHANNELS 3 Zrotation Yrotation Xrotation
			JOINT RightFoot
			{
				OFFSET -2.568260 -7.056230 0.000000 
				CHANNELS 3 Zrotation Yrotation Xrotation
				JOINT RightToeBase
				{
					OFFSET -0.164730 -0.452590 2.363150 
					CHANNELS 3 Zrotation Yrotation Xrotation
					End Site
					{
						OFFSET 0.000000 0.000000 0.000000 
					}
				}
			}
		}
	}
	JOINT Spine
	{
		OFFSET 0.028270 2.035590 -0.193380 
		CHANNELS 3 Zrotation Yrotation Xrotation
		JOINT Spine1
		{
			OFFSET 0.056720 2.048850 -0.042750 
			CHANNELS 3 Zrotation Yrotation Xrotation
			JOINT Neck1
			{
				OFFSET -0.054170 1.746240 0.172020 
				CHANNELS 3 Zrotation Yrotation Xrotation
				JOINT Head
				{
					OFFSET 0.104070 1.761360 -0.123970 
					CHANNELS 3 Zrotation Yrotation Xrotation
					End Site
					{
						OFFSET 0.000000 0.000000 0.000000 
					}
				}
			}
			JOINT LeftArm
			{
				OFFSET 3.362410 1.200890 -0.311210 
				CHANNELS 3 Zrotation Yrotation Xrotation
				JOINT LeftForeArm
				{
					OFFSET 4.983000 -0.000000 -0.000000 
					CHANNELS 3 Zrotation Yrotation Xrotation
					JOINT LeftHand
					{
						OFFSET 3.483560 -0.000000 -0.000000 
						CHANNELS 3 Zrotation Yrotation Xrotation
						JOINT LeftHandIndex1
						{
							OFFSET 0.715260 -0.000000 -0.000000 
							CHANNELS 3 Zrotation Yrotation Xrotation
							End Site
							{
								OFFSET 0.000000 0.000000 0.000000 
							}
						}
					}
				}
			}
			JOINT RightArm
			{
				OFFSET -3.136600 1.374050 -0.404650 
				CHANNELS 3 Zrotation Yrotation Xrotation
				JOINT RightForeArm
				{
					OFFSET -5.241900 -0.000000 -0.000000 
					CHANNELS 3 Zrotation Yrotation Xrotation
					JOINT RightHand
					{
						OFFSET -3.444170 -0.000000 -0.000000 
						CHANNELS 3 Zrotation Yrotation Xrotation
						JOINT RightHandIndex1
						{
							OFFSET -0.622530 -0.000000 -0.000000 
							CHANNELS 3 Zrotation Yrotation Xrotation
							End Site
							{
								OFFSET 0.000000 0.000000 0.000000 
							}
						}
					}
				}
			}
		}
	}
}
MOTION
Frames: 13
Frame Time: 0.041667
4.017129 18.187419 -0.033043 -0.952653 -52.687583 9.050908 -10.990835 -9.478980 -12.353451 -0.460212 4.601553 17.163719 -4.964706 22.552621 -22.129281 0.005000 0.455600 1.251800 18.241063 28.435132 -16.133605 -2.287047 -6.474685 24.874158 5.467931 -20.406680 -10.787521 -0.037700 -1.254000 3.447800 1.670775 -0.927536 18.038665 0.651504 0.079393 -8.660976 8.410418 -2.691184 14.800807 3.308100 -0.914100 5.253600 -78.671242 -7.856126 17.075321 6.414129 -9.048861 -0.504602 -1.338878 0.301476 43.657995 -7.125000 0.000000 0.000000 74.395117 1.163645 21.023397 -51.164650 49.493007 -30.874926 -1.158451 2.754876 -61.344979 7.125000 0.000000 0.000000 
4.001864 18.187322 -0.048308 -0.731570 -52.877453 9.039618 -11.076701 -9.333717 -12.480976 -0.476787 4.554671 17.038109 -4.985632 22.594175 -22.080592 0.002400 0.318300 0.874700 18.075796 28.486490 -16.463356 -2.313826 -6.524042 25.010851 5.419525 -20.229698 -10.571194 -0.030500 -1.127700 3.100300 1.496260 -1.022531 18.264483 0.762924 0.024796 -8.582488 7.988354 -2.489937 14.991616 3.208500 -0.835700 5.285000 -78.560097 -8.102671 19.273356 6.576382 -9.316810 -0.536970 -1.347730 0.250840 41.680669 -7.125000 0.000000 0.000000 74.461851 0.919278 22.249683 -53.970967 50.566316 -33.535038 -1.206232 2.732203 -61.001894 7.125000 0.000000 0.000000 
3.984859 18.186839 -0.062897 -0.619511 -53.088028 9.018861 -11.096066 -9.251842 -12.529138 -0.484486 4.539585 17.003223 -4.959975 22.554268 -22.175730 0.003200 0.366300 1.006400 18.031193 28.587238 -16.604809 -2.330378 -6.548241 25.088693 5.392660 -20.127896 -10.438085 -0.026000 -1.041300 2.862500 1.434387 -1.119756 18.481723 0.805546 -0.029613 -8.586619 7.798369 -2.292054 15.320647 3.185500 -0.748300 5.351100 -78.535396 -8.297199 21.191113 6.750194 -9.612487 -0.572147 -1.350655 0.201989 40.046730 -7.125000 0.000000 0.000000 74.440191 0.618140 23.562162 -56.958937 51.615920 -36.365836 -1.230173 2.720996 -60.527843 7.125000 0.000000 0.000000 
3.965053 18.186259 -0.078743 -0.704697 -53.551376 9.306866 -11.019803 -9.102877 -12.698444 -0.499250 4.529011 16.972519 -4.905560 22.527399 -22.531628 0.007000 0.542100 1.489700 18.061345 28.859740 -16.896294 -2.347643 -6.570811 25.162497 5.346834 -19.950756 -10.185406 -0.025300 -1.027000 2.823200 1.511577 -1.091854 18.533129 0.844842 -0.012257 -8.545360 7.598495 -2.095218 15.633085 3.154100 -0.663600 5.392500 -78.527397 -8.392264 23.264822 6.981811 -9.988986 -0.618805 -1.337023 0.151073 38.310708 -7.125000 0.000000 0.000000 74.509035 0.340153 24.549524 -59.886544 52.578330 -39.169965 -1.259013 2.701915 -59.784739 7.125000 0.000000 0.000000 
3.939160 18.183844 -0.105022 -0.935275 -54.713803 10.121042 -10.953139 -8.662223 -13.260869 -0.514899 4.536209 16.998716 -4.835808 22.613393 -23.263452 0.013000 0.735700 2.021900 17.977649 29.566561 -17.655316 -2.360056 -6.582277 25.173997 5.261138 -19.590827 -9.507928 -0.020000 -0.912200 2.507300 1.890917 -0.860505 18.378013 1.077278 0.146331 -8.292383 7.136240 -1.785702 16.167938 3.068200 -0.534400 5.497500 -78.554250 -8.606710 24.900709 7.185268 -10.287992 -0.659832 -1.323433 0.110588 36.763906 -7.125000 0.000000 0.000000 74.410870 0.211183 25.556994 -62.683149 53.453732 -41.907710 -1.324310 2.662545 -59.105100 7.125000 0.000000 0.000000 
3.923121 18.183071 -0.130819 -1.081484 -55.126094 10.327302 -10.854308 -8.463058 -13.386413 -0.509135 4.559148 17.056303 -4.859479 22.745362 -23.431305 0.013900 0.761000 2.091400 18.128687 29.652884 -17.812653 -2.365275 -6.583865 25.174228 5.221121 -19.410711 -9.098209 -0.015200 -0.795900 2.187400 2.086143 -0.944502 18.511617 1.197110 0.118946 -8.375229 6.628804 -1.495984 16.646187 2.960700 -0.420200 5.578700 -78.572249 -8.799387 26.257049 7.406770 -10.652594 -0.706950 -1.312507 0.068110 35.361714 -7.125000 0.000000 0.000000 74.296237 0.016631 26.616678 -65.659027 54.363794 -44.849558 -1.397822 2.613390 -58.789817 7.125000 0.000000 0.000000 
3.906986 18.183167 -0.140577 -1.307021 -55.384985 10.758286 -10.673645 -8.695590 -13.539646 -0.510142 4.590363 17.149912 -4.812772 22.820952 -23.946154 0.018600 0.881500 2.422800 18.228974 29.632469 -18.163034 -2.361378 -6.578382 25.145470 5.158535 -19.172271 -8.753901 -0.012700 -0.726400 1.996200 2.049073 -1.031808 18.641878 1.099134 0.055404 -8.275528 6.341552 -1.345859 17.070957 2.896700 -0.364700 5.658500 -78.694746 -8.949846 26.708433 7.598840 -10.962873 -0.750159 -1.293583 0.055247 34.917720 -7.125000 0.000000 0.000000 74.413554 -0.048586 27.370643 -68.373898 55.158502 -47.523590 -1.440070 2.573699 -58.339278 7.125000 0.000000 0.000000 
3.894040 18.181622 -0.154587 -1.515224 -55.602554 11.036065 -10.497104 -8.765216 -13.659040 -0.503316 4.635553 17.271411 -4.725956 22.707102 -24.289677 0.026200 1.045100 2.872800 18.382709 29.695997 -18.289767 -2.354605 -6.560786 25.105888 5.111887 -19.002975 -8.594603 -0.016000 -0.816300 2.243500 1.922782 -1.122814 18.805946 1.020206 -0.011737 -8.340550 6.048812 -1.184686 17.618652 2.820500 -0.299100 5.766900 -78.841323 -9.336780 26.280965 7.646732 -11.026612 -0.760664 -1.267642 0.069442 35.390603 -7.125000 0.000000 0.000000 74.635301 -0.016931 27.890258 -70.913933 55.896956 -50.029701 -1.481423 2.534314 -57.735763 7.125000 0.000000 0.000000 
3.880320 18.179206 -0.170335 -1.849625 -55.834869 11.423694 -10.309286 -8.360403 -13.980590 -0.474241 4.704674 17.413765 -4.783959 22.744249 -24.027657 0.022400 0.965200 2.653200 18.622191 29.798890 -18.365479 -2.343409 -6.536353 25.059702 5.042255 -18.775554 -8.552313 -0.023100 -0.981300 2.697300 2.017592 -1.185541 18.887263 0.933667 -0.054428 -8.426889 5.772840 -1.000344 18.097355 2.755100 -0.225500 5.842300 -78.922842 -9.774474 26.492526 7.659779 -11.043421 -0.765436 -1.264854 0.076971 35.450229 -7.125000 0.000000 0.000000 74.494453 -0.237179 28.458610 -73.899894 56.759755 -52.926551 -1.538130 2.471719 -57.360430 7.125000 0.000000 0.000000 
3.863605 18.176114 -0.185794 -2.050124 -56.154506 11.768022 -10.210291 -8.016114 -14.299685 -0.451990 4.760625 17.543886 -4.817643 22.804587 -23.964108 0.021100 0.937300 2.576400 18.722487 29.999176 -18.532230 -2.338918 -6.523651 25.037444 4.976311 -18.550676 -8.428841 -0.032200 -1.159200 3.186900 2.174196 -1.256557 18.982565 0.910483 -0.090194 -8.421619 5.580055 -0.817117 18.761193 2.730700 -0.151400 5.978200 -79.054270 -10.217061 26.637019 7.665691 -11.045335 -0.768843 -1.264753 0.086477 35.503225 -7.125000 0.000000 0.000000 74.199735 -0.460073 29.047963 -76.983283 57.624330 -55.854061 -1.591285 2.397551 -56.914340 7.125000 0.000000 0.000000 
3.846987 18.173409 -0.199707 -2.183980 -56.414336 11.997479 -10.098789 -7.950396 -14.437976 -0.448190 4.783988 17.601746 -4.802980 22.834863 -24.151763 0.021900 0.955300 2.625900 18.814479 30.101277 -18.704602 -2.346463 -6.532689 25.079976 4.906065 -18.308831 -8.260874 -0.038600 -1.268900 3.489000 2.017802 -1.373811 19.221489 0.896267 -0.167994 -8.397862 5.235989 -0.622830 19.316604 2.649000 -0.078400 6.092900 -79.047344 -10.768021 26.566406 7.658198 -11.021062 -0.768058 -1.249434 0.080725 35.322092 -7.125000 0.000000 0.000000 74.502418 -0.240812 29.227825 -79.147046 58.202998 -57.869069 -1.602275 2.360674 -56.004083 7.125000 0.000000 0.000000 
3.832012 18.172346 -0.210141 -2.293815 -56.631349 12.195234 -9.983201 -8.030396 -14.433246 -0.471224 4.744114 17.491034 -4.799563 22.926860 -24.411286 0.027900 1.078900 2.965900 18.888152 30.056496 -18.990877 -2.371231 -6.583036 25.237290 4.793913 -17.939612 -8.070949 -0.035900 -1.223700 3.364600 1.945867 -1.515986 19.466582 0.871545 -0.253207 -8.411282 5.188909 -0.438578 19.830765 2.671100 0.001900 6.197500 -79.116814 -11.395763 26.215067 7.629906 -10.954321 -0.760901 -1.226187 0.077049 35.197022 -7.125000 0.000000 0.000000 75.189721 0.249530 28.928996 -81.122704 58.709127 -59.636857 -1.569389 2.342081 -54.486978 7.125000 0.000000 0.000000 
3.816167 18.170994 -0.218450 -1.753632 -57.026171 11.824817 -10.281333 -7.944144 -14.346533 -0.505276 4.663021 17.298960 -4.794315 23.025855 -24.628652 0.033100 1.174900 3.230200 18.577820 29.880180 -19.365274 -2.408817 -6.662848 25.449387 4.670923 -17.512682 -7.666802 -0.028400 -1.087300 2.989000 1.570470 -1.570190 19.695404 0.963488 -0.300964 -8.397501 5.148228 -0.251077 20.273778 2.688600 0.083300 6.280600 -79.276117 -12.084870 25.200014 7.533536 -10.787217 -0.740578 -1.204694 0.090227 35.862107 -7.125000 0.000000 0.000000 74.540673 -0.074536 29.893962 -84.618321 59.575844 -62.689953 -1.525161 2.252572 -54.327770 7.125000 0.000000 0.000000 
